<svg version="1.0" xmlns="http://www.w3.org/2000/svg" width="1860" height="440" viewBox="0 0 1395 330">
  <defs>
    <linearGradient id="a">
      <stop offset="0%" stop-color="#feda75"/>
      <stop offset="20%" stop-color="#fa7e1e"/>
      <stop offset="40%" stop-color="#d62976"/>
      <stop offset="60%" stop-color="#962fbf"/>
      <stop offset="100%" stop-color="#4f5bd5"/>
    </linearGradient>
  </defs>
  <g transform="matrix(.1 0 0 -.1 0 330)" fill="url(#a)">
    <path
      d="M603 3276c-195-64-396-332-514-686-59-179-74-265-74-425 1-161 17-218 82-295 77-89 199-107 232-33 16 34 6 60-30 79-69 35-76 159-21 374 83 325 273 649 424 724 102 51 162 27 218-87 91-187 126-516 117-1117-5-386-19-602-56-865-19-139-16-173 19-218 31-39 116-77 171-77 68 0 93 25 114 120 59 257 266 868 523 1545 180 474 218 555 263 555 40 0 44-36 25-263-55-705-71-1029-62-1317 15-537 103-770 288-770 80 0 199 76 214 135 11 45 2 60-41 63-51 4-79 31-104 98-54 143-76 381-75 829 0 602 46 1033 133 1248 36 91 39 142 11 196-78 155-444 249-551 142-16-17-29-44-34-72-4-24-25-102-46-174-55-184-533-1634-537-1630-2 2 2 131 9 287 21 489 0 952-51 1155-76 294-424 552-647 479zM12615 2987c-81-46-153-177-142-259 7-52 47-111 99-145 34-23 55-29 117-31 66-3 81-1 111 20 110 73 115 303 9 393-57 48-133 56-194 22zM7652 2385c-100-114-91-289 22-424 20-24 35-51 32-60s-8-41-11-71c-18-140-88-313-171-421-45-59-129-123-147-112-15 9 0 475 19 576 29 156 29 169 0 204-15 18-43 37-62 43-37 13-127 15-145 5-5-4-31 13-58 38-60 57-111 88-184 115-281 105-484-172-536-736-8-82-15-112-36-148-49-83-116-135-196-151l-32-6 6 44c58 405 8 759-126 897-64 66-91 78-268 122-176 44-210 45-280 9-52-26-121-107-162-191-76-154-114-347-124-628-6-191-21-255-84-367-85-150-211-154-255-8-47 156-16 505 66 745 44 127 40 160-26 225-76 77-232 124-316 96-56-19-75-48-117-186-22-72-96-296-165-500l-124-370-1 107c-1 147 17 635 30 792 9 118 8 131-9 165-38 73-163 112-247 77-45-19-50-44-35-159 9-63 11-165 7-322-4-198-9-247-32-355-65-307-152-468-241-446-27 7-59 52-74 106-45 153-22 669 39 880 20 71 16 93-21 127-31 29-132 55-184 47-39-6-46-3-100 42-119 97-240 131-349 99-157-45-279-274-329-617-50-344-20-625 82-784 57-89 150-141 279-159 62-8 121 15 170 66 41 43 96 163 119 258 19 81 17 82 55-23 41-114 172-204 308-214 62-4 75-2 114 21 47 28 83 70 129 151l29 51-6-72c-8-97 14-150 82-193 80-51 176-66 205-32 8 9 23 57 32 106 61 313 310 999 372 1023 37 14 38-14 5-179-25-122-35-200-38-309-9-235 19-340 111-427 59-56 105-82 185-106 68-20 94-20 158-1 70 21 134 73 184 150l42 65 43-89c25-50 62-108 87-133 76-79 210-128 350-129 69-1 86 3 143 31 46 22 77 47 108 86 43 53 99 156 112 208 6 24 11 26 58 26 74 0 143 23 208 70 58 41 68 40 68-10 0-41 52-180 88-236 21-32 57-71 79-86 90-60 225-84 296-55 40 17 99 82 130 144 30 59 73 191 82 256 4 26 11 47 15 47s10-172 14-382c6-334 5-391-9-443-31-118-100-170-225-170-107 0-158 30-256 151-41 51-86 102-100 113-65 51-164 6-164-75 0-90 83-184 225-254 117-58 218-82 346-82 262 0 410 98 449 300 10 50 10 131 1 380-6 174-14 350-17 390-2 39-3 72 0 72s22-11 42-25c134-91 281 75 365 415 16 63 32 143 35 176 9 83 11 85 64 73 25-6 71-8 103-5 31 3 57 3 57 1 0-3-11-65-24-138-78-426-49-728 81-848 79-73 230-127 312-113 84 15 161 83 226 198l37 66 30-62c56-112 145-175 281-198 81-15 122-4 180 49 48 43 107 162 133 270 19 81 17 82 55-23 41-114 172-204 308-214 62-4 75-2 114 22 47 27 99 90 136 164 12 23 24 42 27 42 2 0 2-33-2-74-8-93-2-117 42-166 54-60 186-100 232-71 7 4 30 84 52 177 116 507 213 858 246 884 11 10 17 10 30-1 14-11 15-59 13-431l-3-417 24-26c55-59 166-83 230-50 21 11 32 27 40 58 65 245 144 497 242 767 64 178 80 210 103 210 20 0 19-32-6-220-26-201-36-462-20-557 16-92 57-177 112-231 100-98 257-139 353-92 126 61 230 261 291 561 49 246 44 320-24 349-49 20-57 10-70-87-31-227-87-446-141-554-66-129-160-157-209-61-32 63-42 140-42 312 1 254 30 496 77 639 31 93 26 119-34 184-61 64-148 108-227 115-93 7-105-8-160-193-24-82-102-319-172-525l-128-375-3 60c-5 75 16 476 29 570 22 164 23 179 1 221-44 87-197 149-304 124-25-7-53-19-62-29s-25-67-36-129c-23-129-68-324-140-612-68-274-71-283-76-278-6 7 15 759 26 923 12 171 4 194-81 238-46 25-63 28-113 25-50-4-63-9-84-33-22-27-24-33-16-89 5-34 9-180 9-326-1-251-2-272-28-395-53-246-117-399-185-438-119-69-173 118-151 522 11 206 30 353 58 451 20 71 16 93-21 127-31 29-132 55-184 47-39-6-46-3-100 42-33 26-86 60-119 75-189 89-345 17-451-205-76-161-116-358-133-661-7-137-13-174-39-255-35-106-83-193-125-224-37-28-90-26-122 4-121 114-99 659 41 1017 28 70 35 100 30 126-15 80-123 177-197 177-34 0-42-5-68-44-63-92-155-146-245-146h-41l-1 123c0 105-3 129-23 174-26 60-56 83-105 83-28 0-41-8-74-45zm-1892-235c5 0 23-12 40-26 69-58 109-193 117-396l6-128-38-75c-36-70-39-82-39-163-1-66 4-98 18-130 20-43 20-43-3-120-48-163-117-249-195-239-77 11-138 104-173 267-25 118-25 472 0 609 23 121 59 233 97 298 41 71 107 119 148 107 8-2 17-4 22-4zm-2557-54c18-7 47-30 65-50l32-37v-137c0-269-83-690-171-863-75-150-178-143-225 13-26 86-27 411-1 574 43 277 121 460 211 500 39 17 50 17 89 0zm3794 3c15-5 45-27 66-47l37-36v-106c0-261-80-699-159-875-60-131-130-170-191-106-51 56-65 132-65 356 1 413 97 753 229 811 38 16 47 17 83 3zm2226-3c18-7 47-30 65-50l32-37v-137c0-269-83-690-171-863-75-150-178-143-225 13-26 86-27 411-1 574 43 277 121 460 211 500 39 17 50 17 89 0zM13312 2365c-23-7-58-24-76-38-52-40-59-69-48-184 11-112 1-285-23-388-48-207-155-376-293-462l-52-32v207c0 114 5 317 10 452 8 183 8 252-1 273-32 76-170 76-259 0-52-45-62-83-43-165 18-79 36-904 30-1363-4-344-11-386-67-440-29-28-37-30-103-30-89 1-139 24-194 91-84 103-109 124-145 124-106 0-103-161 4-242 49-37 124-73 208-99 106-33 298-34 381-1 82 33 130 71 164 133l30 54v175c0 96-3 314-8 485l-7 310 21-28c38-49 100-68 182-55 15 2 23-11 41-72 58-198 158-310 304-341 224-46 486 175 500 422 7 126-13 204-173 654-73 206-91 292-70 342 28 67 21 101-33 153-77 74-177 97-280 65zm127-647c48-145 101-315 116-378 62-253 26-390-106-407-58-8-137 34-187 100s-61 86-88 171l-22 69 39 81c66 140 117 356 134 570 5 61 10 84 17 73 5-9 48-135 97-279z"/>
    <path
      d="M12063 1001c-83-38-126-154-87-236 34-71 132-118 213-100 75 16 139 124 126 210-12 82-91 145-181 145-16 0-48-9-71-19z"/>
  </g>
</svg>
